HIERARCHY
ROOT Hips
{
  OFFSET 0.0 0.0 0.0
  CHANNELS 6 XPOSITION YPOSITION ZPOSITION XROTATION YROTATION ZROTATION 
  JOINT Spine
  {
    OFFSET 0.0 0.118905 0.0
    CHANNELS 3 XROTATION YROTATION ZROTATION 
    JOINT Head
    {
      OFFSET 0.0 0.3439156 0.00139004
      CHANNELS 3 XROTATION YROTATION ZROTATION 
      End Site
      {
        OFFSET -0.0029 0.127742 0.0251395
      }
    }
    JOINT RightArm
    {
      OFFSET -0.192727 0.25291768 0.00229786
      CHANNELS 3 XROTATION YROTATION ZROTATION 
      JOINT RightForeArm
      {
        OFFSET -0.26364 0.00099144 -0.0142434
        CHANNELS 3 XROTATION YROTATION ZROTATION 
        JOINT RightHand
        {
          OFFSET -0.220324 0.00085362 0.0102216
          CHANNELS 3 XROTATION YROTATION ZROTATION 
          End Site
          {
            OFFSET -0.133284 -0.006 0.0150291
          }
        }
      }
    }
    JOINT LeftArm
    {
      OFFSET 0.192727 0.2529176801 0.00229786
      CHANNELS 3 XROTATION YROTATION ZROTATION 
      JOINT LeftForeArm
      {
        OFFSET 0.262597 0.00099144 -0.0142434
        CHANNELS 3 XROTATION YROTATION ZROTATION 
        JOINT LeftHand
        {
          OFFSET 0.220902 0.00085362 0.0102216
          CHANNELS 3 XROTATION YROTATION ZROTATION 
          End Site
          {
            OFFSET 0.13419 -0.006 0.0150291
          }
        }
      }
    }
  }
  JOINT RightUpLeg
  {
    OFFSET -0.089458 -0.0866707 0.00101652
    CHANNELS 3 XROTATION YROTATION ZROTATION 
    JOINT RightLeg
    {
      OFFSET 0.0 -0.444227 0.013727
      CHANNELS 3 XROTATION YROTATION ZROTATION 
      JOINT RightFoot
      {
        OFFSET 0.00253549 -0.420924 -0.0146059
        CHANNELS 3 XROTATION YROTATION ZROTATION 
        End Site
        {
          OFFSET 0.0004 -0.0441509 0.084991
        }
      }
    }
  }
  JOINT LeftUpLeg
  {
    OFFSET 0.089458 -0.0866707 0.00101652
    CHANNELS 3 XROTATION YROTATION ZROTATION 
    JOINT LeftLeg
    {
      OFFSET 0.0 -0.444227 0.013727
      CHANNELS 3 XROTATION YROTATION ZROTATION 
      JOINT LeftFoot
      {
        OFFSET -0.00253549 -0.420924 -0.0146059
        CHANNELS 3 XROTATION YROTATION ZROTATION 
        End Site
        {
          OFFSET -0.0004 -0.0441509 0.084991
        }
      }
    }
  }
}
MOTION
Frames: 7
Frame Time: 0.033333
-1.276319999999999955e-01	9.923492123279999966e-01	2.552940000000000209e-01	1.657286328519868945e+01	6.697938949353429905e+01	-1.496819612918721454e+01	-1.692261510541223757e+01	-3.375127455278033484e+00	8.739594860614595007e+00	2.836854460225892183e+01	3.535259773028682417e+01	-2.356057571813162710e+01	2.690165745434651967e+01	-3.284085202392654423e+01	7.568955809365625953e+01	1.522938311433993830e+00	3.870646949480786958e+01	1.571456333884632528e+01	9.611975886695169891e+00	1.725060918776286423e+00	-1.089480276731589292e+01	4.378072757100681223e+00	-4.461807905819324738e+00	-7.879335569586494614e+01	-9.293294826222009419e+00	-2.334551917549426392e+01	-1.672636499765226858e+01	8.016770991123713941e+00	4.732364107482197824e+00	2.128902121099928380e+01	-1.942214794588684512e+01	-1.607075288614797159e+01	-9.224100436478168685e-01	2.786828968989524213e+01	-4.415778793441986494e+01	5.254212205403701930e+00	-4.132616215784782554e+01	1.187044021977693831e+01	7.199787993157135801e+00	-8.972017767905581920e+00	1.283148047474357512e+01	2.320862814343899405e+00	5.679122303113781101e+01	2.325556118151234841e+01	1.137802956717424818e+00	-3.614719372414630527e+01	1.790678972466905705e+01	-2.533758461195044220e-01
-1.532650000000000123e-01	9.954392123280000337e-01	2.523029999999999995e-01	3.053780741311197744e+01	7.779921905664475901e+01	-2.869918091291585327e+01	-1.882889006843528890e+01	-3.875620258702493270e+00	8.073107319073841381e+00	2.899716536230127417e+01	3.323780340767509500e+01	-2.349786364778186609e+01	3.071312271359003176e+01	-3.365203619902001009e+01	7.665563031986313547e+01	2.125420041683079742e+00	3.795815459337705988e+01	1.508774716851067588e+01	9.646321382135464972e+00	1.718363957157612809e+00	-9.746749640976247520e+00	6.213104988900421510e+00	-1.646217550366479765e+00	-7.925661298077910999e+01	-6.839044403302496633e+00	-2.905286189252113616e+01	-1.807983042030956256e+01	8.014184500813083645e+00	4.430874709616485774e+00	2.199141139827517577e+01	-1.881108384020204127e+01	-1.512799096278483368e+01	-1.671129008139657923e+00	2.627554665521433108e+01	-4.037103817433680319e+01	3.860723290482028780e+00	-4.032720455064724518e+01	1.108262499977623960e+01	8.236997919309338556e+00	-6.302545427023109603e+00	1.472889363931181705e+01	3.758055701294480855e+00	5.255928440248121092e+01	2.058934217327506389e+01	1.041183308579441746e+00	-3.533557056914396100e+01	1.863910085424017993e+01	-1.335824823436557729e+00
-1.794250000000000012e-01	9.982192123280000384e-01	2.478410000000000057e-01	1.020795206076066108e+02	8.383945567780767760e+01	-1.025747332709432982e+02	-2.031370700393806672e+01	-4.211141996783125840e+00	5.342390906649742810e+00	2.738933379603448515e+01	3.158326816629231359e+01	-2.068379947257745499e+01	3.438578149492209235e+01	-3.455314699151970359e+01	7.975512137892883402e+01	2.693168215481995809e+00	3.647352657343419224e+01	1.430331396738364447e+01	9.676754361188999454e+00	1.546165454395339367e+00	-8.310088139699255194e+00	7.325027864112049869e+00	-1.340475047197322356e+00	-7.825790070582318947e+01	-5.275929397025747036e+00	-3.395492772095694534e+01	-1.901823257512804233e+01	8.024808275815761505e+00	4.002790285550895000e+00	2.290893287182958105e+01	-1.767820138140923092e+01	-1.297793061758401123e+01	-2.920316136578315014e+00	2.456500351754634792e+01	-4.033229181956220089e+01	4.064526263000098005e+00	-3.966873731970744643e+01	1.042428767895892605e+01	9.108710818204231785e+00	-5.602438152202029897e+00	1.758674526242442582e+01	6.343074411282558778e+00	4.751426733560202820e+01	1.745167421593768253e+01	9.087744770849177645e-01	-3.445485462324337078e+01	1.958844639117924302e+01	-2.766434114033606395e+00
-2.082779999999999909e-01	1.000069212329999901e+00	2.423629999999999951e-01	1.573445731424927203e+02	7.362292613660389407e+01	-1.565276411269605035e+02	-2.104694337482113298e+01	-4.604220644888868286e+00	1.444240485950748276e+00	2.368009027767341834e+01	3.017386883222518534e+01	-1.603089530259782336e+01	3.830295198361650222e+01	-3.567097464303630261e+01	8.482848924022080439e+01	2.867208656854399518e+00	3.459274754618297010e+01	1.368710391714190244e+01	9.691868742544743398e+00	1.310267404918599832e+00	-7.325180135600015241e+00	6.917619430150539372e+00	-3.379146305395087868e+00	-7.593524454644587252e+01	-4.809466622071937536e+00	-3.714384032842311001e+01	-1.984696227888015230e+01	8.095746310563713521e+00	3.679085866887541467e+00	2.287166800210699336e+01	-1.696138634745643259e+01	-1.030802906444625933e+01	-4.281648834993679209e+00	2.405093489321142286e+01	-4.958295838425534896e+01	6.077025450832115538e+00	-3.885921102849800235e+01	1.016220178059780821e+01	9.519746474334203512e+00	-8.115145678465795598e+00	2.166221919402909890e+01	9.826580442059974274e+00	4.285059295216917974e+01	1.537180055660787659e+01	8.284085786490587022e-01	-3.406035529803485673e+01	2.002089178191762642e+01	-3.433699821482418812e+00
-2.402229999999999921e-01	1.000249212329999970e+00	2.357029999999999959e-01	1.670220477869996500e+02	6.038075441060917825e+01	-1.675068611238282870e+02	-2.015605839546233824e+01	-5.092875804251056238e+00	-9.970222770459278294e-01	1.952790628606208756e+01	2.866486231161658793e+01	-1.315056847471130830e+01	4.095498939184669496e+01	-3.696092532714108359e+01	8.887421358567196705e+01	1.984888541298602149e+00	3.235386635194640093e+01	1.363227734230673605e+01	9.689900945803326948e+00	1.192719062026225796e+00	-7.134076754216912342e+00	4.658853419139163954e+00	-7.469930949010294086e+00	-7.457451217159227497e+01	-4.578269353592443913e+00	-3.871885900341302289e+01	-2.021770939574870241e+01	8.156348057244668937e+00	3.641209362689197260e+00	2.221839201077968440e+01	-1.698776971674632108e+01	-1.027015408832823340e+01	-5.779288419838723101e+00	2.446739242741085363e+01	-5.953372141778850590e+01	7.978593021583405331e+00	-3.781963214259634043e+01	1.040116153796564191e+01	9.329128156031645247e+00	-1.260224866192283777e+01	2.637477375024285209e+01	1.318185728201273044e+01	3.814644874527709817e+01	1.508838946761553146e+01	8.172517201633661132e-01	-3.429084145567969699e+01	2.037810711031162825e+01	-3.903584965355097580e+00
-2.737439999999999873e-01	1.000989212329999933e+00	2.277810000000000112e-01	1.713181409667627406e+02	4.807417261729776214e+01	-1.725921923787629737e+02	-1.794789995881129485e+01	-5.362394020364726899e+00	-7.820720648741779080e-01	1.671568530769106431e+01	2.749402593571849707e+01	-1.391384898834944472e+01	4.077406187268789495e+01	-3.805081753492977725e+01	8.919496402459895990e+01	-6.176142984522245416e-02	2.947044919601713175e+01	1.400035679529124799e+01	9.689081223539249166e+00	1.078218155985549487e+00	-6.926862523850228825e+00	9.028829714040995658e-01	-1.214002542713097199e+01	-7.594127568132773831e+01	-3.182335744281776790e+00	-3.924055360867291142e+01	-1.933251146999000980e+01	8.156702981389900131e+00	3.596912401153384842e+00	2.232302173680425028e+01	-1.641681740223728880e+01	-1.100223773557037354e+01	-7.421738285774800659e+00	2.382882747334678086e+01	-6.285028892347342122e+01	8.616374940604469401e+00	-3.672443741953343022e+01	1.094882243797136923e+01	8.730083375910862031e+00	-1.714378833804721580e+01	3.232612583848245436e+01	1.545155013136311695e+01	3.202681076436839192e+01	1.680630189254794260e+01	8.747935756616150860e-01	-3.369684630496921329e+01	2.092841796670128929e+01	-4.788136280899418118e+00
-3.089799999999999769e-01	1.002159212330000049e+00	2.189850000000000130e-01	1.736177797649365289e+02	3.686441825427621666e+01	-1.761073230214255148e+02	-1.545354955061243807e+01	-5.468939094792844458e+00	9.607122822202001089e-01	1.544635172187148342e+01	2.690443174803580462e+01	-1.630410426738183105e+01	3.848586727062878055e+01	-3.833156973689033009e+01	8.667264999268645909e+01	-1.948790564760413346e+00	2.597966960199290298e+01	1.385209659058756060e+01	9.711979622012920643e+00	8.487806638544168614e-01	-5.908937894141053526e+00	-3.391103600185495726e+00	-1.566750331152129583e+01	-7.914695094727183289e+01	-4.081755447933606007e-01	-3.890337859756563432e+01	-1.716579042246659625e+01	8.089971286551284280e+00	3.399615659284538349e+00	2.368867863331156443e+01	-1.504125068826370892e+01	-1.130555961950430088e+01	-8.751743894478959618e+00	2.096447056637393302e+01	-5.967470335214792243e+01	7.314382620806705759e+00	-3.584951294070949501e+01	1.098012214118469032e+01	8.769659063036344904e+00	-2.161697304343425330e+01	3.943034822062327294e+01	1.654989000924168607e+01	2.594394694828908854e+01	1.986956737297818520e+01	9.929405507013439047e-01	-3.386493472594958831e+01	2.001904399725000516e+01	-3.452661496888104864e+00
